<svg xmlns="http://www.w3.org/2000/svg" viewBox="0 0 159.43 63.5"><defs><style>.cls-1{fill:#fff;}</style></defs><g id="Exportados_finales" data-name="Exportados finales"><path class="cls-1" d="M71.85,22.08a1.45,1.45,0,0,0,1-.34,1.27,1.27,0,0,0,0-1.79,1.5,1.5,0,0,0-1-.32,1.45,1.45,0,0,0-1,.34,1.16,1.16,0,0,0-.38.88,1.14,1.14,0,0,0,.37.92A1.55,1.55,0,0,0,71.85,22.08Z"/><path class="cls-1" d="M56.75,28.18H58.9a3.3,3.3,0,0,0,1.76-.48,3.46,3.46,0,0,0,1.24-1.28,3.61,3.61,0,0,0,.46-1.83,3.42,3.42,0,0,0-.46-1.78,3.35,3.35,0,0,0-1.24-1.24,3.47,3.47,0,0,0-1.76-.46H54.3V31.84h2.45Zm0-4.87h1.85a1.29,1.29,0,0,1,.66.16,1.17,1.17,0,0,1,.45.46,1.41,1.41,0,0,1,.17.69,1.49,1.49,0,0,1-.17.71,1.38,1.38,0,0,1-.45.48,1.21,1.21,0,0,1-.66.18H56.72Z"/><path class="cls-1" d="M59.26,37.37l-7.41,18.8h4.24l1.41-3.76h7.07L66,56.17h4.38L63,37.37Zm-.49,11.68,1-2.66c.14-.43.29-.85.46-1.27s.31-.85.45-1.29.27-.84.39-1.26c.12.4.24.81.38,1.23s.3.93.44,1.37.28.83.4,1.17l1,2.71Z"/><path class="cls-1" d="M99.65,31l0,0a3.49,3.49,0,0,0,4.28.43,3.79,3.79,0,0,0,1.29-1.5,5.15,5.15,0,0,0,0-4.34A3.73,3.73,0,0,0,104,24.11a3.33,3.33,0,0,0-1.87-.54,3.55,3.55,0,0,0-1.34.25,3.11,3.11,0,0,0-1,.67c0,.06-.08.12-.13.17l0-.94H97.32V35.21h2.33Zm.17-4.38a1.79,1.79,0,0,1,.68-.78,2,2,0,0,1,2,0,1.84,1.84,0,0,1,.67.78,2.89,2.89,0,0,1,0,2.35,1.91,1.91,0,0,1-.68.78,2.06,2.06,0,0,1-2,0,1.91,1.91,0,0,1-.68-.78,2.89,2.89,0,0,1,0-2.35Z"/><path class="cls-1" d="M94,22.08a1.45,1.45,0,0,0,1-.34,1.13,1.13,0,0,0,.38-.89,1.12,1.12,0,0,0-.37-.9,1.53,1.53,0,0,0-1-.32A1.44,1.44,0,0,0,93,20a1.12,1.12,0,0,0-.38.88,1.14,1.14,0,0,0,.37.92A1.5,1.5,0,0,0,94,22.08Z"/><path class="cls-1" d="M152.25,31.46a5,5,0,0,0,3.44.4,5.5,5.5,0,0,0,1.09-.4,4.67,4.67,0,0,0,1-.66l-1.11-1.55a3,3,0,0,1-.91.55,2.61,2.61,0,0,1-1,.16,2.86,2.86,0,0,1-1.32-.29,1.91,1.91,0,0,1-.86-.8,2.27,2.27,0,0,1-.23-.58h5.69l0-.66a4.5,4.5,0,0,0-.26-1.63,3.83,3.83,0,0,0-.79-1.29,3.57,3.57,0,0,0-1.23-.85,3.75,3.75,0,0,0-1.54-.31,4.27,4.27,0,0,0-1.66.32,3.74,3.74,0,0,0-1.31.88,4.09,4.09,0,0,0-.86,1.36,4.54,4.54,0,0,0-.31,1.72,4.24,4.24,0,0,0,.55,2.15A4,4,0,0,0,152.25,31.46Zm.32-5a1.64,1.64,0,0,1,.67-.73,2.17,2.17,0,0,1,1.09-.25,1.73,1.73,0,0,1,.79.18,1.49,1.49,0,0,1,.58.5,1.29,1.29,0,0,1,.24.71v.05h-3.52A2.07,2.07,0,0,1,152.57,26.48Z"/><path class="cls-1" d="M86,31.44a4,4,0,0,0,2.11.56,5,5,0,0,0,2-.39,3.59,3.59,0,0,0,1.44-1.05L90.28,29a2.41,2.41,0,0,1-.54.52,2.29,2.29,0,0,1-.64.33,2.57,2.57,0,0,1-.75.1,1.9,1.9,0,0,1-1.06-.29,2,2,0,0,1-.74-.79,2.29,2.29,0,0,1-.27-1.12,2.33,2.33,0,0,1,.27-1.13,2,2,0,0,1,.73-.78,2,2,0,0,1,1.07-.29,2.36,2.36,0,0,1,.75.13,2.52,2.52,0,0,1,.67.35,2.4,2.4,0,0,1,.51.49L91.56,25a3.46,3.46,0,0,0-1.43-1.1,5,5,0,0,0-2-.39A4.12,4.12,0,0,0,86,24.1a4,4,0,0,0-1.46,1.51A4.34,4.34,0,0,0,84,27.78a4.28,4.28,0,0,0,.54,2.16A3.9,3.9,0,0,0,86,31.44Z"/><path class="cls-1" d="M66.24,27.7a1.85,1.85,0,0,1,.12-.67,1.7,1.7,0,0,1,.34-.54,1.37,1.37,0,0,1,.52-.35,1.73,1.73,0,0,1,.64-.12,2.15,2.15,0,0,1,.58.07,1.85,1.85,0,0,1,.44.16l.62-2.54a2.13,2.13,0,0,0-.42-.11,2.76,2.76,0,0,0-.51-.05,2.49,2.49,0,0,0-1.18.3,3.21,3.21,0,0,0-1,.81c-.09.11-.16.24-.24.36l0-1.3H63.91v8.12h2.33Z"/><rect class="cls-1" x="92.88" y="23.72" width="2.31" height="8.12"/><path class="cls-1" d="M141.32,43.74a4.83,4.83,0,0,0-2.42-1.81,6,6,0,0,0-1.9-.29,5.94,5.94,0,0,0-3.31,1,6.62,6.62,0,0,0-2.28,2.62,9.18,9.18,0,0,0,0,7.63,6.69,6.69,0,0,0,2.26,2.63,5.49,5.49,0,0,0,3.19,1,5.42,5.42,0,0,0,1.86-.31,6.69,6.69,0,0,0,1.57-.82,4.86,4.86,0,0,0,1-.94v1.8h4.08V41.93h-4ZM141,51.09a3.29,3.29,0,0,1-1.18,1.39A3.23,3.23,0,0,1,138,53a3.14,3.14,0,0,1-1.77-.49A3.36,3.36,0,0,1,135,51.09,5.07,5.07,0,0,1,135,47a3.24,3.24,0,0,1,1.18-1.37A3.14,3.14,0,0,1,138,45.1a3.23,3.23,0,0,1,1.79.49A3.17,3.17,0,0,1,141,47a5.41,5.41,0,0,1,0,4.13Z"/><path class="cls-1" d="M124.88,20.5h-2.33v4.05a2.94,2.94,0,0,0-.42-.36,3.2,3.2,0,0,0-.92-.47,3.6,3.6,0,0,0-1.09-.17,3.41,3.41,0,0,0-1.9.55,3.86,3.86,0,0,0-1.31,1.51,4.72,4.72,0,0,0-.48,2.17,4.77,4.77,0,0,0,.48,2.19,3.84,3.84,0,0,0,1.31,1.48,3.3,3.3,0,0,0,1.89.55,3.81,3.81,0,0,0,1.08-.16,3.66,3.66,0,0,0,.91-.44,3.22,3.22,0,0,0,.54-.49l.06.93h2.18ZM122.38,29a1.9,1.9,0,0,1-.69.81,1.94,1.94,0,0,1-2,0A2,2,0,0,1,119,29a3.12,3.12,0,0,1,0-2.4,2.08,2.08,0,0,1,.68-.81,1.94,1.94,0,0,1,2,0,2,2,0,0,1,.69.81,3.12,3.12,0,0,1,0,2.4Z"/><path class="cls-1" d="M120.05,41.64a4.35,4.35,0,0,0-2.07.52,5.67,5.67,0,0,0-1.74,1.43,5.11,5.11,0,0,0-.41.62l-.08-2.28h-3.87V56.17H116V48.92a3,3,0,0,1,.22-1.18,2.83,2.83,0,0,1,.59-.94,2.42,2.42,0,0,1,.91-.62,2.92,2.92,0,0,1,1.13-.22,4.11,4.11,0,0,1,1,.12,3.1,3.1,0,0,1,.76.29l1.1-4.46a5.28,5.28,0,0,0-.74-.19A4.91,4.91,0,0,0,120.05,41.64Z"/><path class="cls-1" d="M104.33,50.45a2.63,2.63,0,0,1-.21,1,2.91,2.91,0,0,1-.57.83,2.43,2.43,0,0,1-.84.54,3.29,3.29,0,0,1-1.12.18,2.5,2.5,0,0,1-1.34-.34,2.27,2.27,0,0,1-.87-1,3.68,3.68,0,0,1-.31-1.6V41.93H95v8.79a7.15,7.15,0,0,0,.6,3.07,4.52,4.52,0,0,0,1.72,2,5.07,5.07,0,0,0,2.7.69,5.4,5.4,0,0,0,2.23-.46,5.23,5.23,0,0,0,1.8-1.26,4.4,4.4,0,0,0,.38-.5l.11,2h3.84V41.93h-4.06Z"/><rect class="cls-1" x="123.78" y="41.93" width="4.06" height="14.24"/><rect class="cls-1" x="70.7" y="23.72" width="2.31" height="8.12"/><path class="cls-1" d="M148.83,20.5H146.5v4.05a2.86,2.86,0,0,0-.41-.36,3.39,3.39,0,0,0-.93-.47,3.49,3.49,0,0,0-1.08-.17,3.39,3.39,0,0,0-1.9.55,3.86,3.86,0,0,0-1.31,1.51,4.72,4.72,0,0,0-.48,2.17,4.77,4.77,0,0,0,.48,2.19,3.84,3.84,0,0,0,1.31,1.48,3.29,3.29,0,0,0,1.88.55,3.81,3.81,0,0,0,1.08-.16,3.56,3.56,0,0,0,.92-.44,3.14,3.14,0,0,0,.53-.49l.06.93h2.18ZM146.33,29a1.88,1.88,0,0,1-.68.81,2,2,0,0,1-2.05,0,1.93,1.93,0,0,1-.67-.81,3,3,0,0,1,0-2.4,2.06,2.06,0,0,1,.67-.81,2,2,0,0,1,2.05,0,2,2,0,0,1,.68.81,3,3,0,0,1,0,2.4Z"/><path class="cls-1" d="M159.21,50.49a3.1,3.1,0,0,0-.67-1.09,5.3,5.3,0,0,0-1.44-1,12.45,12.45,0,0,0-2.19-.79c-.68-.18-1.21-.34-1.6-.48a5,5,0,0,1-.84-.38,1,1,0,0,1-.43-.41,1.34,1.34,0,0,1-.16-.55,1.06,1.06,0,0,1,.12-.5,1.08,1.08,0,0,1,.35-.39,1.5,1.5,0,0,1,.56-.23,4.31,4.31,0,0,1,.77-.07,3.85,3.85,0,0,1,1.17.22,5.77,5.77,0,0,1,1.23.59,7.71,7.71,0,0,1,1.09.81l2.15-2.4a6.61,6.61,0,0,0-1.6-1.15,9.54,9.54,0,0,0-2-.75,8.86,8.86,0,0,0-2.21-.27,7,7,0,0,0-2.11.31,6,6,0,0,0-1.8.88,4.43,4.43,0,0,0-1.23,1.37A3.57,3.57,0,0,0,148,46,3.72,3.72,0,0,0,149,48.73a5.52,5.52,0,0,0,1.5,1.05,12.79,12.79,0,0,0,2.26.8c.59.15,1.08.29,1.45.42a6.73,6.73,0,0,1,.83.34,1,1,0,0,1,.46.88,1.18,1.18,0,0,1-.11.5,1,1,0,0,1-.33.4,1.59,1.59,0,0,1-.54.26,2.88,2.88,0,0,1-.68.08,5.71,5.71,0,0,1-2-.39A5.09,5.09,0,0,1,150,51.82L147.47,54A6.56,6.56,0,0,0,150,55.78a9.26,9.26,0,0,0,3.61.66,7.19,7.19,0,0,0,3-.59,5.15,5.15,0,0,0,2.07-1.64,4,4,0,0,0,.77-2.39A4,4,0,0,0,159.21,50.49Z"/><polygon class="cls-1" points="90.18 38.33 86.12 38.33 86.12 41.93 83.54 41.93 83.54 45.53 86.12 45.53 86.12 56.17 90.18 56.17 90.18 45.53 93.02 45.53 93.02 41.93 90.18 41.93 90.18 38.33"/><path class="cls-1" d="M134.32,30a4.17,4.17,0,0,0,.56-2.18,4.1,4.1,0,0,0-.56-2.17,4,4,0,0,0-1.54-1.51,4.51,4.51,0,0,0-2.22-.55,4.59,4.59,0,0,0-2.24.55,4.06,4.06,0,0,0-1.54,1.51,4.11,4.11,0,0,0-.57,2.17,4.17,4.17,0,0,0,.57,2.18,4,4,0,0,0,1.54,1.49,4.48,4.48,0,0,0,2.24.55,4.4,4.4,0,0,0,2.22-.55A3.94,3.94,0,0,0,134.32,30Zm-2-1A1.88,1.88,0,0,1,130.56,30a2,2,0,0,1-1-.28,2.11,2.11,0,0,1-.72-.79,2.65,2.65,0,0,1,0-2.29,2.11,2.11,0,0,1,.72-.79,1.81,1.81,0,0,1,1-.3,1.85,1.85,0,0,1,1,.3,2,2,0,0,1,.71.78,2.41,2.41,0,0,1,.24,1.16A2.38,2.38,0,0,1,132.3,28.92Z"/><path class="cls-1" d="M125.79,34.76a2.5,2.5,0,0,0-1.78.61,2.22,2.22,0,0,0,0,3.14,2.67,2.67,0,0,0,1.8.55,2.59,2.59,0,0,0,1.79-.59,2.21,2.21,0,0,0,0-3.14A2.63,2.63,0,0,0,125.79,34.76Z"/><path class="cls-1" d="M112.68,30.79v1.05H115V23.72h-2.3v1.05a2.56,2.56,0,0,0-.52-.57,2.69,2.69,0,0,0-.86-.48,3.41,3.41,0,0,0-1.09-.17,3.33,3.33,0,0,0-1.89.55,3.78,3.78,0,0,0-1.3,1.49,5.27,5.27,0,0,0,0,4.35,3.8,3.8,0,0,0,1.29,1.5,3.16,3.16,0,0,0,1.82.56,3.06,3.06,0,0,0,1.06-.18,3.5,3.5,0,0,0,.9-.47A3,3,0,0,0,112.68,30.79ZM110.81,30a1.82,1.82,0,0,1-1-.28,2,2,0,0,1-.67-.79,2.73,2.73,0,0,1-.24-1.18,2.7,2.7,0,0,1,.24-1.18,1.93,1.93,0,0,1,.67-.79,1.89,1.89,0,0,1,1-.27,1.94,1.94,0,0,1,1,.27,1.86,1.86,0,0,1,.67.79,2.7,2.7,0,0,1,.24,1.18A2.73,2.73,0,0,1,112.5,29a1.92,1.92,0,0,1-.67.79A1.86,1.86,0,0,1,110.81,30Z"/><path class="cls-1" d="M81.72,49.4a5.3,5.3,0,0,0-1.44-1,12.45,12.45,0,0,0-2.19-.79c-.68-.18-1.21-.34-1.6-.48a4.83,4.83,0,0,1-.85-.38,1.07,1.07,0,0,1-.43-.41,1.52,1.52,0,0,1-.16-.55,1.06,1.06,0,0,1,.12-.5,1.18,1.18,0,0,1,.35-.39,1.55,1.55,0,0,1,.57-.23,4.28,4.28,0,0,1,.76-.07,3.75,3.75,0,0,1,1.17.22,6.08,6.08,0,0,1,1.24.59,8.33,8.33,0,0,1,1.09.81l2.14-2.4a6.55,6.55,0,0,0-1.59-1.15,9.41,9.41,0,0,0-2-.75,8.78,8.78,0,0,0-2.2-.27,7,7,0,0,0-2.11.31,6,6,0,0,0-1.8.88,4.46,4.46,0,0,0-1.24,1.37A3.68,3.68,0,0,0,71.13,46a3.78,3.78,0,0,0,1.08,2.74,5.22,5.22,0,0,0,1.5,1.05,12.79,12.79,0,0,0,2.26.8c.59.15,1.07.29,1.45.42a7.47,7.47,0,0,1,.83.34,1,1,0,0,1,.46.88,1.18,1.18,0,0,1-.11.5,1.07,1.07,0,0,1-.34.4,1.54,1.54,0,0,1-.53.26,3,3,0,0,1-.69.08,5.75,5.75,0,0,1-2-.39,5.05,5.05,0,0,1-1.86-1.25L70.65,54a6.49,6.49,0,0,0,2.54,1.81,9.23,9.23,0,0,0,3.61.66,7.19,7.19,0,0,0,3-.59,5.15,5.15,0,0,0,2.07-1.64,4,4,0,0,0,.76-2.39,4,4,0,0,0-.21-1.33A3.25,3.25,0,0,0,81.72,49.4Z"/><path class="cls-1" d="M81.44,23.93a3.19,3.19,0,0,0-2.82-.1,3.29,3.29,0,0,0-1.06.73,1.66,1.66,0,0,0-.16.21l-.05-1.05H75.14v8.12h2.32V27a1.39,1.39,0,0,1,.12-.57,1.48,1.48,0,0,1,.34-.46,1.69,1.69,0,0,1,1.13-.43,1.31,1.31,0,0,1,.74.16,1,1,0,0,1,.45.51,2.4,2.4,0,0,1,.14.87v4.79h2.33v-5A4.46,4.46,0,0,0,82.39,25,2.31,2.31,0,0,0,81.44,23.93Z"/><path class="cls-1" d="M32.41,21.3H0v29a9.16,9.16,0,0,0,9.16,9.16,10.63,10.63,0,0,1,6.26,2,10.49,10.49,0,0,1,2.1,2,10.81,10.81,0,0,1,2.11-2,10.63,10.63,0,0,1,6.26-2,9.17,9.17,0,0,0,9.16-9.16v-29Zm0,29a6.53,6.53,0,0,1-6.52,6.52,13.4,13.4,0,0,0-8.21,2.83l-.16.12-.15-.12a13.3,13.3,0,0,0-2.65-1.61,13.14,13.14,0,0,0-5.56-1.22,6.53,6.53,0,0,1-6.53-6.52V23.93H32.41Z"/><path class="cls-1" d="M17.34,4.41a.33.33,0,0,0,.23.1.35.35,0,0,0,.24-.1l1.92-1.92a.35.35,0,0,0,.1-.24.34.34,0,0,0-.1-.23L17.81.1a.31.31,0,0,0-.24-.1.29.29,0,0,0-.23.1L15.42,2a.32.32,0,0,0,0,.47Z"/><path class="cls-1" d="M12.34,13.4h3.87V9.53a3.91,3.91,0,0,0-3.91-3.9H8.43V9.5A3.91,3.91,0,0,0,12.34,13.4Z"/><path class="cls-1" d="M32.21,7.59A2.91,2.91,0,0,0,29.3,10.5v2.9h2.91a2.91,2.91,0,1,0,0-5.81Z"/><path class="cls-1" d="M18.94,13.4h3.91a3.89,3.89,0,0,0,3.89-3.89V5.6H22.83a3.89,3.89,0,0,0-3.89,3.89Z"/><rect class="cls-1" x="7.37" y="16" width="20.41" height="2.63"/><path class="cls-1" d="M2.91,13.4H5.79V10.52A2.88,2.88,0,1,0,2.91,13.4Z"/><path class="cls-1" d="M13,44l-.85-1.49a.41.41,0,0,0-.72,0L10.55,44l-.8,1.37c-.06.11-.11.35,0,.43a.31.31,0,0,0,.2.19c0,.1.47.06.54,0l.42-.15.19-.06a2.8,2.8,0,0,1,1.35,0l.28.09.32.11c.09.08.64.09.61,0a.33.33,0,0,0,.1-.06c.14-.06.12-.39,0-.54Z"/><path class="cls-1" d="M24.78,42.9a.48.48,0,0,0-.42-.23H21.89a.5.5,0,0,0-.42.22,2.27,2.27,0,0,0-.27.54,2.09,2.09,0,0,0-.12.76,2.43,2.43,0,0,0,.1.73,1.29,1.29,0,0,0,.45.67,1.34,1.34,0,0,0,.84.26h1.3a1.27,1.27,0,0,0,1.29-.92,2.47,2.47,0,0,0,0-1.49A2.72,2.72,0,0,0,24.78,42.9Z"/><path class="cls-1" d="M7.87,41.66a.92.92,0,0,0,1.3.17l1.33-1.06H16v11l-1.14,1.42a.66.66,0,0,0,.45,1.06,23.73,23.73,0,0,0,4.46,0,.66.66,0,0,0,.45-1.06L19.1,51.79v-11h5.52L26,41.83a.92.92,0,0,0,1.3-.17l1.42-1.91a.92.92,0,0,0,0-1.09l-1.42-1.9a.91.91,0,0,0-1.3-.18l-1.33,1.06H19.1V30.4L20.18,29A.92.92,0,0,0,20,27.73l-1.9-1.41a.93.93,0,0,0-1.1,0l-1.9,1.41A.91.91,0,0,0,14.94,29L16,30.4v7.24H10.5L9.17,36.58a.91.91,0,0,0-1.3.18l-1.42,1.9a.92.92,0,0,0,0,1.09Z"/></g></svg>